<svg xmlns="http://www.w3.org/2000/svg" viewBox="0 0 64 64" fill="none" role="img" aria-labelledby="faviconTitle faviconDesc">
  <title id="faviconTitle">Aryan Bokolia favicon</title>
  <desc id="faviconDesc">AB monogram favicon on a deep navy background with a blue accent.</desc>
  <defs>
    <linearGradient id="faviconBg" x1="10" y1="8" x2="54" y2="56" gradientUnits="userSpaceOnUse">
      <stop stop-color="#0F172A" />
      <stop offset="1" stop-color="#020617" />
    </linearGradient>
    <linearGradient id="faviconAccent" x1="18" y1="16" x2="47" y2="44" gradientUnits="userSpaceOnUse">
      <stop stop-color="#60A5FA" />
      <stop offset="1" stop-color="#2563EB" />
    </linearGradient>
  </defs>
  <rect x="4" y="4" width="56" height="56" rx="16" fill="url(#faviconBg)" />
  <rect x="4.5" y="4.5" width="55" height="55" rx="15.5" stroke="#3B82F6" stroke-opacity="0.18" />
  <path
    d="M18.5 45.5 27.8 18h4.4l9.3 27.5h-5.8l-1.8-5.8h-8.1L24 45.5h-5.5Zm8.7-10.5h5.2l-2.6-8.5-2.6 8.5Z"
    fill="#F8FAFC"
  />
  <path
    d="M38.5 18h5.6c5 0 7.9 2.4 7.9 6.3 0 2.5-1.3 4.4-3.6 5.3 2.9.7 4.6 2.8 4.6 5.9 0 4.2-3.1 6.9-8.4 6.9h-6.1V18Zm5.1 10.5c2.1 0 3.3-.9 3.3-2.7 0-1.7-1.2-2.5-3.3-2.5h-.5v5.2h.5Zm.6 9.7c2.4 0 3.7-1 3.7-3 0-1.9-1.4-3-3.9-3h-.9v6h1.1Z"
    fill="url(#faviconAccent)"
  />
</svg>
